<?xml version="1.0" encoding="utf-8"?>
<!-- Generator: Adobe Illustrator 22.0.1, SVG Export Plug-In . SVG Version: 6.00 Build 0)  -->
<svg version="1.1" id="图层_1" xmlns="http://www.w3.org/2000/svg" xmlns:xlink="http://www.w3.org/1999/xlink" x="0px" y="0px"
	 viewBox="0 0 1877 522.1" style="enable-background:new 0 0 1877 522.1;" xml:space="preserve">
<style type="text/css">
	.st0{fill:#0088FF;stroke:#000000;stroke-miterlimit:10;}
</style>
<title>资源 1</title>
<g id="图层_2_1_">
	<g id="图层_1-2">
		<path class="st0" d="M112.9,395.1H0l155.2-197.5L0,0h112.9l155.2,197.5L112.9,395.1z"/>
		<path class="st0" d="M296.3,423.3h282.2v98.8H296.3V423.3z"/>
		<path class="st0" d="M621.1,0h99.1l-0.3,395.1h-98.8V0z M748.1,98.8V0h42.3C845,0,891.6,19.3,930.1,57.9s57.8,85.2,57.9,139.7
			c0,54.6-19.3,101.2-57.9,139.7c-38.5,38.5-85,57.8-139.6,57.8h-42.3v-98.8h42.3c27.3,0,50.6-9.6,69.9-28.9s28.9-42.5,28.9-69.8
			s-9.7-50.6-28.9-69.9s-42.6-28.9-69.9-28.9L748.1,98.8z"/>
		<path class="st0" d="M1030.4,112.9V0L1242,141.1L1453.7,0v0.3L1454,0l-0.3,395.1h-98.8V185.4L1242,268.1L1030.4,112.9z
			 M1129.1,213.6v181.5h-98.8v-254L1129.1,213.6z"/>
		<path class="st0" d="M1496,0h99.1l-0.3,395.1H1496V0z"/>
		<path class="st0" d="M1637.1,0H1877v98.8h-239.9V0z M1707.7,127h99.1l-0.3,268.1h-98.8L1707.7,127L1707.7,127z"/>
	</g>
</g>
</svg>
